<svg xmlns="http://www.w3.org/2000/svg" xmlns:xlink="http://www.w3.org/1999/xlink"><symbol id="sprite-arrow-big" viewBox="0 0 327 327"><path d="M176.036 247.662a358 358 0 0 0 5.308-.605 256 256 0 0 0 7.384-1.002 152 152 0 0 0 9.24-1.664l.003-.001a82 82 0 0 0 5.073-1.253 3 3 0 0 0 .236-.08 2.72 2.72 0 0 0 1.718-2.733l-.005-.067a5 5 0 0 0-.4-1.552 18 18 0 0 0-.853-1.761 36 36 0 0 0-.335-.604 46 46 0 0 0-.363-.628v-.001a61 61 0 0 0-1.087-1.775 41 41 0 0 0-.47-.725 7 7 0 0 0-.18-.261l-.078-.102a136 136 0 0 0-14.597-15.462 2.5 2.5 0 0 0-3.356 3.706 131 131 0 0 1 14.011 14.834l.02.03.01.015a36 36 0 0 1 .418.643l.002.004a56 56 0 0 1 .65 1.046 100 100 0 0 1-15.703-3.807 94 94 0 0 1-18.108-8.175l-.002-.001a85.4 85.4 0 0 1-15.519-11.622l-.003-.003a72.6 72.6 0 0 1-11.64-14.128l-.003-.006a57.5 57.5 0 0 1-7.399-17.556 47.7 47.7 0 0 1-1.206-9.538v-.015l-.002-.062v-.009a201 201 0 0 1-.07-4.66 75 75 0 0 1 .004-.966 21 21 0 0 0 7.685 1.366 25 25 0 0 0 1.367-.039 24.6 24.6 0 0 0 6.672-1.314 18.9 18.9 0 0 0 7.277-4.448l.037-.037a14 14 0 0 0 .593-.644l.01-.013a14.9 14.9 0 0 0 3.545-8.956 16 16 0 0 0 .022-.804 14.2 14.2 0 0 0-4.671-10.783l-.057-.05a12.47 12.47 0 0 0-6.633-2.893 11 11 0 0 0-1.418-.087 12 12 0 0 0-1.08.049 3 3 0 0 0-.197.025 20.02 20.02 0 0 0-12.925 8.113l-.05.072a30.3 30.3 0 0 0-4.517 11.168 48 48 0 0 1-1.426-1.487 42 42 0 0 1-4.298-5.54 39 39 0 0 1-3.934-7.87 40.4 40.4 0 0 1-2.403-13.884v-.011a44 44 0 0 1 .039-1.852 52.6 52.6 0 0 1 5.556-20.904l.01-.021a61.7 61.7 0 0 1 22.015-24.667 53 53 0 0 1 3.024-1.765 2.5 2.5 0 0 0-2.376-4.4 58 58 0 0 0-3.321 1.94l-.02.011a66.7 66.7 0 0 0-23.802 26.662 57.6 57.6 0 0 0-6.08 22.894l-.001.026a49 49 0 0 0-.044 2.07 45.4 45.4 0 0 0 2.703 15.604l.003.01a44 44 0 0 0 4.44 8.882 47 47 0 0 0 4.807 6.197 53 53 0 0 0 4.53 4.378 80 80 0 0 0-.086 3.984 206 206 0 0 0 .071 4.772l.002.058v.022a52.7 52.7 0 0 0 1.335 10.547l.003.013a62.5 62.5 0 0 0 8.042 19.088 77.6 77.6 0 0 0 12.438 15.097 90.4 90.4 0 0 0 16.426 12.302 99 99 0 0 0 19.068 8.608 105 105 0 0 0 8.103 2.317 147 147 0 0 1-1.227.188h-.005a251 251 0 0 1-7.242.984h-.002a353 353 0 0 1-5.234.596 2.5 2.5 0 0 0 .528 4.972m-42.978-98.194a25.33 25.33 0 0 0-4.12 12.227 11 11 0 0 0 1.225.611 16 16 0 0 0 6.213 1.176h.028a20 20 0 0 0 1.1-.031h.003a19.6 19.6 0 0 0 5.328-1.051l.033-.011a13.9 13.9 0 0 0 5.346-3.258 9 9 0 0 0 .362-.395 9.9 9.9 0 0 0 2.35-5.948l.001-.017a11 11 0 0 0 .015-.568v-.048a9.2 9.2 0 0 0-2.998-6.978 7.47 7.47 0 0 0-3.953-1.71l-.023-.004a6 6 0 0 0-.8-.05 7 7 0 0 0-.54.021 15.03 15.03 0 0 0-9.57 6.034" fill-rule="evenodd"/></symbol><use xlink:href="#sprite-arrow-big" width="327" height="327" y="0"/><view id="sprite-arrow-big-view" viewBox="0 0 327 327"/><symbol id="sprite-arrow-right" viewBox="0 0 27 13"><path d="M20.18.91a.75.75 0 0 1 1.06.002l5.041 5.059a.75.75 0 0 1 0 1.058l-5.04 5.059a.75.75 0 0 1-1.063-1.06L24.69 6.5l-4.512-4.528A.75.75 0 0 1 20.18.91"/><path d="M25.667 5.75a.75.75 0 0 1 0 1.5H.75a.75.75 0 0 1 0-1.5z"/></symbol><use xlink:href="#sprite-arrow-right" width="27" height="13" y="327"/><view id="sprite-arrow-right-view" viewBox="0 327 27 13"/><symbol id="sprite-arrow-vector" viewBox="0 0 98 173"><path d="M69.037 172.662a358 358 0 0 0 5.308-.605 256 256 0 0 0 7.383-1.002 152 152 0 0 0 9.24-1.664l.003-.001a82 82 0 0 0 5.074-1.253 3 3 0 0 0 .237-.08 2.72 2.72 0 0 0 1.716-2.733l-.005-.067a5 5 0 0 0-.4-1.552 18 18 0 0 0-.853-1.761 36 36 0 0 0-.335-.604 46 46 0 0 0-.363-.628v-.002a61 61 0 0 0-1.088-1.775 41 41 0 0 0-.47-.725 7 7 0 0 0-.182-.263l-.076-.098a136 136 0 0 0-14.597-15.463 2.5 2.5 0 0 0-3.355 3.706 131 131 0 0 1 14.012 14.835l.02.03.01.014a36 36 0 0 1 .416.643l.003.004a56 56 0 0 1 .65 1.046 100 100 0 0 1-15.703-3.807 94 94 0 0 1-18.108-8.175l-.002-.001a85.4 85.4 0 0 1-15.519-11.622l-.003-.003a72.6 72.6 0 0 1-11.64-14.128l-.003-.006a57.5 57.5 0 0 1-7.399-17.556 47.7 47.7 0 0 1-1.207-9.538v-.015l-.002-.095v-.009a201 201 0 0 1-.069-4.622 75 75 0 0 1 .004-.971 21 21 0 0 0 7.685 1.366 25 25 0 0 0 1.367-.04 24.5 24.5 0 0 0 6.672-1.313 18.9 18.9 0 0 0 7.277-4.448l.037-.037a14 14 0 0 0 .593-.645l.01-.012a14.9 14.9 0 0 0 3.545-8.956 16 16 0 0 0 .022-.804 14.2 14.2 0 0 0-4.671-10.783l-.056-.05a12.47 12.47 0 0 0-6.634-2.893 11 11 0 0 0-1.418-.087 12 12 0 0 0-1.082.05 3 3 0 0 0-.198.025 20.02 20.02 0 0 0-12.921 8.112l-.05.072a30.3 30.3 0 0 0-4.517 11.168 48 48 0 0 1-1.427-1.487 42 42 0 0 1-4.298-5.54 39 39 0 0 1-3.934-7.87 40.4 40.4 0 0 1-2.403-13.885v-.011a44 44 0 0 1 .039-1.851 52.6 52.6 0 0 1 5.556-20.904l.01-.022A61.7 61.7 0 0 1 32.954 6.605a53 53 0 0 1 3.024-1.765 2.5 2.5 0 0 0-2.375-4.4 58 58 0 0 0-3.322 1.94l-.02.011A66.7 66.7 0 0 0 6.459 29.053a57.6 57.6 0 0 0-6.08 22.893l-.001.027a49 49 0 0 0-.044 2.07 45.4 45.4 0 0 0 2.703 15.605l.003.008a44 44 0 0 0 4.44 8.883 47 47 0 0 0 4.806 6.197 53 53 0 0 0 4.532 4.379 80 80 0 0 0-.087 3.988 206 206 0 0 0 .07 4.733l.002.091v.023a52.7 52.7 0 0 0 1.336 10.547l.003.013a62.5 62.5 0 0 0 8.042 19.088 77.6 77.6 0 0 0 12.438 15.097 90.4 90.4 0 0 0 16.426 12.302 99 99 0 0 0 19.068 8.608 105 105 0 0 0 8.104 2.317 147 147 0 0 1-1.227.188h-.006a251 251 0 0 1-7.242.984h-.002a353 353 0 0 1-5.234.596 2.5 2.5 0 1 0 .529 4.972m-42.98-98.193a25.3 25.3 0 0 0-4.12 12.225 11 11 0 0 0 1.225.612 16 16 0 0 0 6.213 1.176h.029a20 20 0 0 0 1.1-.031h.003a19.5 19.5 0 0 0 5.327-1.051l.033-.011a13.9 13.9 0 0 0 5.346-3.258 9 9 0 0 0 .362-.395 9.9 9.9 0 0 0 2.35-5.949l.001-.017a11 11 0 0 0 .015-.567v-.048a9.2 9.2 0 0 0-2.998-6.978 7.47 7.47 0 0 0-3.953-1.71l-.023-.003a6 6 0 0 0-.8-.05h-.001a7 7 0 0 0-.54.02 15.02 15.02 0 0 0-9.569 6.035" fill-rule="evenodd"/></symbol><use xlink:href="#sprite-arrow-vector" width="98" height="173" y="340"/><view id="sprite-arrow-vector-view" viewBox="0 340 98 173"/><symbol id="sprite-arrow" viewBox="0 0 28 28"><path d="m17.365 6.388 7.082 7.082a.75.75 0 0 1 0 1.06l-7.082 7.082a.75.75 0 0 1-1.06-1.06L22.855 14l-6.55-6.551a.75.75 0 0 1 1.06-1.061"/><path d="M4.084 13.25h19.635a.75.75 0 0 1 0 1.5H4.083a.75.75 0 0 1 0-1.5"/></symbol><use xlink:href="#sprite-arrow" width="28" height="28" y="513"/><view id="sprite-arrow-view" viewBox="0 513 28 28"/><symbol id="sprite-cart" viewBox="0 0 30 30"><path d="M8.625 9.587v-1.22a6.716 6.716 0 0 1 5.713-6.571l.04-.005a7 7 0 0 1 .63-.03h.002a6.376 6.376 0 0 1 6.365 6.376v1.725a.75.75 0 0 1-1.5 0V8.137a4.876 4.876 0 0 0-4.867-4.877 5 5 0 0 0-.466.022 5.216 5.216 0 0 0-4.417 5.097v1.208a.75.75 0 0 1-1.5 0"/><path d="M11.25 28.25h7.492a12 12 0 0 0 3.273-.385 4.58 4.58 0 0 0 3.02-2.304l.018-.037a6.9 6.9 0 0 0 .631-2.413l.935-7.48.001-.008a11 11 0 0 0 .068-1.116 4.55 4.55 0 0 0-3.403-4.837 10.8 10.8 0 0 0-3.048-.418L20 9.25h-9.992a11.3 11.3 0 0 0-3.173.384 4.6 4.6 0 0 0-2.915 2.148l-.023.043a5.5 5.5 0 0 0-.585 2.658 11 11 0 0 0 .068 1.14v.008l.931 7.445a4.844 4.844 0 0 0 3.456 4.723l.004.001a11 11 0 0 0 3.224.448zm0-1.5h7.517a10.4 10.4 0 0 0 2.879-.339l.026-.006a3.08 3.08 0 0 0 2.03-1.534 5.4 5.4 0 0 0 .487-1.887l.004-.04.937-7.496a9 9 0 0 0 .059-.983l.003-.073a3.05 3.05 0 0 0-2.287-3.27l-.024-.007a9.3 9.3 0 0 0-2.641-.363h-.016L20 10.75H9.984a9.8 9.8 0 0 0-2.77.336l-.026.006a3.1 3.1 0 0 0-1.962 1.43 4 4 0 0 0-.415 1.92v.023a9 9 0 0 0 .059.983l.937 7.496a1 1 0 0 1 .005.116 3.344 3.344 0 0 0 2.383 3.302 9.6 9.6 0 0 0 2.793.386h.018z" fill-rule="evenodd"/><path d="M19.37 14.25h.01a.75.75 0 0 1 0 1.5h-.01a.75.75 0 0 1 0-1.5"/><path d="M10.618 14.25h.011a.75.75 0 0 1 0 1.5h-.01a.75.75 0 0 1 0-1.5"/></symbol><use xlink:href="#sprite-cart" width="30" height="30" y="541"/><view id="sprite-cart-view" viewBox="0 541 30 30"/><symbol id="sprite-filter" viewBox="0 0 30 30"><path d="M26.75 5.125v-.003a3.507 3.507 0 0 0-3.497-3.497H6.736A3.537 3.537 0 0 0 3.25 5.266v2.899A4.2 4.2 0 0 0 3.569 9.6a5.3 5.3 0 0 0 1.08 1.71l.002.003 4.71 4.958a4.2 4.2 0 0 1 .656 1.326l.004.014a2.4 2.4 0 0 1 .105.649v6.614m15.037-13.376-5.364 4.74.009-.007a1 1 0 0 0-1.344-1.481l5.335-4.715-.032.035a1 1 0 0 0 1.396 1.428M5.417 8.837l.013.032a3.3 3.3 0 0 0 .67 1.069h.001l4.748 4.998a1 1 0 0 1 .072.085 6.2 6.2 0 0 1 1.013 2.013 4.4 4.4 0 0 1 .19 1.197v6.639-.005m6.75-6.485v5.37a1 1 0 0 0-2-.017v.008-5.366a1 1 0 0 0 2 .009zm-1.585 8.336-1.75 1.125a1 1 0 0 0-1.065-1.692l-.007.004 1.718-1.104-.018.013a1 1 0 0 0 1.122 1.654m5.958-23.091a1.507 1.507 0 0 1 1.502 1.502" fill-rule="evenodd"/><path d="M14.51 3.154 8.349 13.03a1 1 0 1 1-1.696-1.058l6.162-9.875a1 1 0 0 1 1.697 1.058"/></symbol><use xlink:href="#sprite-filter" width="30" height="30" y="571"/><view id="sprite-filter-view" viewBox="0 571 30 30"/><symbol id="sprite-mission-consultion" viewBox="0 0 30 30"><path d="M16.488 7.5h-8c-.325 0-.638.013-.938.05-3.362.288-5.05 2.275-5.05 5.938v5c0 5 2 5.987 5.988 5.987h.5c.274 0 .637.188.8.4l1.5 2c.662.887 1.737.887 2.4 0l1.5-2c.187-.25.487-.4.8-.4h.5c3.662 0 5.65-1.675 5.937-5.05.037-.3.05-.613.05-.937v-5c0-3.988-2-5.988-5.988-5.988m-8.363 10c-.7 0-1.25-.562-1.25-1.25S7.438 15 8.125 15s1.25.563 1.25 1.25-.562 1.25-1.25 1.25m4.363 0c-.7 0-1.25-.562-1.25-1.25S11.8 15 12.488 15s1.25.563 1.25 1.25-.55 1.25-1.25 1.25m4.375 0c-.7 0-1.25-.562-1.25-1.25s.562-1.25 1.25-1.25 1.25.563 1.25 1.25-.563 1.25-1.25 1.25"/><path d="M27.475 8.488v5c0 2.5-.775 4.2-2.325 5.137-.375.225-.813-.075-.813-.512l.013-4.625c0-5-2.863-7.863-7.863-7.863l-7.612.013c-.438 0-.738-.438-.513-.813C9.3 3.275 11 2.5 13.487 2.5h8c3.988 0 5.988 2 5.988 5.988"/></symbol><use xlink:href="#sprite-mission-consultion" width="30" height="30" y="601"/><view id="sprite-mission-consultion-view" viewBox="0 601 30 30"/><symbol id="sprite-mission-guarantee" viewBox="0 0 30 30"><path d="M22.262 6.863v.924l-4.425-2.562c-1.675-.962-4.012-.962-5.675 0L7.737 7.8v-.937c0-2.813 1.538-4.363 4.35-4.363h5.825c2.813 0 4.35 1.55 4.35 4.363"/><path d="m22.3 9.962-.175-.087-1.7-.975L16.9 6.862c-1.075-.625-2.725-.625-3.8 0L9.575 8.887l-1.7 1L7.65 10c-2.187 1.475-2.338 1.75-2.338 4.113v5.65c0 2.362.15 2.637 2.388 4.15l5.4 3.112c.537.325 1.213.463 1.9.463.675 0 1.363-.15 1.9-.463l5.45-3.15c2.2-1.475 2.337-1.738 2.337-4.113v-5.65c0-2.362-.15-2.637-2.387-4.15m-3.812 6.913-.763.938a.9.9 0 0 0-.2.587l.075 1.2c.05.737-.475 1.112-1.163.85L15.326 20a1.1 1.1 0 0 0-.637 0l-1.113.438c-.687.274-1.212-.113-1.162-.85l.075-1.2a.9.9 0 0 0-.2-.588l-.776-.925c-.475-.562-.262-1.187.45-1.375l1.163-.3c.188-.05.4-.225.5-.375l.65-1c.4-.625 1.037-.625 1.45 0l.65 1a1 1 0 0 0 .5.375l1.163.3c.712.188.924.813.45 1.375"/></symbol><use xlink:href="#sprite-mission-guarantee" width="30" height="30" y="631"/><view id="sprite-mission-guarantee-view" viewBox="0 631 30 30"/><symbol id="sprite-mission-support" viewBox="0 0 30 30"><path d="M21.25 10.9a.93.93 0 0 1-.663-.275l-2.5-2.5a.943.943 0 0 1 0-1.325.943.943 0 0 1 1.325 0l1.838 1.838 4.337-4.325a.943.943 0 0 1 1.325 0 .943.943 0 0 1 0 1.325l-5 5a1.03 1.03 0 0 1-.662.262"/><path d="M13.813 18.688 11.5 21a1.256 1.256 0 0 1-1.762.012c-.138-.137-.275-.262-.413-.4a35.5 35.5 0 0 1-3.487-4.087c-1.025-1.425-1.85-2.85-2.45-4.262C2.8 10.837 2.5 9.474 2.5 8.174c0-.85.15-1.663.45-2.413.3-.762.775-1.462 1.438-2.087.8-.787 1.675-1.175 2.6-1.175.35 0 .7.075 1.012.225.325.15.613.375.838.7l2.9 4.088c.225.312.387.6.5.874.112.263.175.525.175.763 0 .3-.088.6-.263.887-.162.288-.4.588-.7.888l-.95.987c-.137.138-.2.3-.2.5 0 .1.012.188.037.288.038.1.075.175.1.25.226.413.613.95 1.163 1.6.563.65 1.162 1.313 1.813 1.975.124.125.262.25.387.375.5.488.512 1.288.012 1.788"/><path d="M27.463 22.913a3.2 3.2 0 0 1-.313 1.362 5.1 5.1 0 0 1-.85 1.275c-.613.675-1.288 1.162-2.05 1.475-.012 0-.025.013-.038.013a6.3 6.3 0 0 1-2.4.462c-1.274 0-2.637-.3-4.075-.913-1.437-.612-2.874-1.437-4.3-2.474A31 31 0 0 1 12 23l4.087-4.087c.35.262.663.462.925.6.063.024.138.062.226.1.1.037.2.05.312.05a.7.7 0 0 0 .512-.213l.95-.937c.313-.313.613-.55.9-.7a1.67 1.67 0 0 1 .888-.263c.238 0 .488.05.762.162.275.113.563.276.875.488l4.138 2.938c.325.224.55.487.688.8.124.312.2.625.2.975"/></symbol><use xlink:href="#sprite-mission-support" width="30" height="30" y="661"/><view id="sprite-mission-support-view" viewBox="0 661 30 30"/><symbol id="sprite-next" viewBox="0 0 32 32"><path d="m11.35 26.03 8.693-8.693a1.88 1.88 0 0 0 .55-1.335v-.004a1.88 1.88 0 0 0-.55-1.334L11.35 5.97a.75.75 0 0 1 1.06-1.06l8.694 8.693a3.38 3.38 0 0 1 .99 2.397 3.38 3.38 0 0 1-.99 2.397L12.41 27.09a.75.75 0 1 1-1.06-1.06"/></symbol><use xlink:href="#sprite-next" width="32" height="32" y="691"/><view id="sprite-next-view" viewBox="0 691 32 32"/><symbol id="sprite-play" viewBox="0 0 18 19"><path d="M18 9.392 0 18.785V0z"/></symbol><use xlink:href="#sprite-play" width="18" height="19" y="723"/><view id="sprite-play-view" viewBox="0 723 18 19"/><symbol id="sprite-quotes" viewBox="0 0 34 30"><path d="M10.483 14.383H2.666C2.8 6.6 4.333 5.316 9.116 2.483c.55-.333.734-1.033.4-1.6a1.144 1.144 0 0 0-1.583-.4C2.3 3.816.333 5.85.333 15.533v8.984c0 2.85 2.317 5.15 5.15 5.15h5c2.933 0 5.15-2.217 5.15-5.15v-5c0-2.917-2.217-5.134-5.15-5.134"/><path d="M28.516 14.383H20.7c.133-7.783 1.666-9.067 6.45-11.9.55-.333.733-1.033.4-1.6a1.164 1.164 0 0 0-1.6-.4c-5.634 3.333-7.6 5.367-7.6 15.067v8.983c0 2.85 2.316 5.15 5.15 5.15h5c2.933 0 5.15-2.216 5.15-5.15v-5c.016-2.933-2.2-5.15-5.134-5.15"/></symbol><use xlink:href="#sprite-quotes" width="34" height="30" y="742"/><view id="sprite-quotes-view" viewBox="0 742 34 30"/><symbol id="sprite-search-normal" viewBox="0 0 32 32"><path d="M15.333 29A13.667 13.667 0 1 0 1.667 15.333 13.667 13.667 0 0 0 15.333 29m0-2A11.667 11.667 0 1 0 3.667 15.333 11.667 11.667 0 0 0 15.333 27" fill-rule="evenodd"/><path d="m28.626 30.04-2.667-2.666a1 1 0 0 1 1.415-1.415l2.666 2.667a1 1 0 0 1-1.414 1.414"/></symbol><use xlink:href="#sprite-search-normal" width="32" height="32" y="772"/><view id="sprite-search-normal-view" viewBox="0 772 32 32"/><symbol id="sprite-search" viewBox="0 0 32 32"><path d="M15.333 29A13.667 13.667 0 1 0 1.667 15.333 13.667 13.667 0 0 0 15.333 29m0-2A11.667 11.667 0 1 0 3.667 15.333 11.667 11.667 0 0 0 15.333 27" fill-rule="evenodd"/><path d="m28.626 30.04-2.667-2.666a1 1 0 0 1 1.415-1.415l2.666 2.667a1 1 0 0 1-1.414 1.414"/></symbol><use xlink:href="#sprite-search" width="32" height="32" y="804"/><view id="sprite-search-view" viewBox="0 804 32 32"/><symbol id="sprite-sketch-arrow" viewBox="0 0 327 327"><path d="M176.036 247.662a358 358 0 0 0 5.308-.605 256 256 0 0 0 7.384-1.002 152 152 0 0 0 9.24-1.664l.003-.001a82 82 0 0 0 5.073-1.253 3 3 0 0 0 .236-.08 2.72 2.72 0 0 0 1.718-2.733l-.005-.067a5 5 0 0 0-.4-1.552 18 18 0 0 0-.853-1.761 36 36 0 0 0-.335-.604 46 46 0 0 0-.363-.628v-.001a61 61 0 0 0-1.087-1.775 41 41 0 0 0-.47-.725 7 7 0 0 0-.18-.261l-.078-.102a136 136 0 0 0-14.597-15.462 2.5 2.5 0 0 0-3.356 3.706 131 131 0 0 1 14.011 14.834l.02.03.01.015a36 36 0 0 1 .418.643l.002.004a56 56 0 0 1 .65 1.046 100 100 0 0 1-15.703-3.807 94 94 0 0 1-18.108-8.175l-.002-.001a85.4 85.4 0 0 1-15.519-11.622l-.003-.003a72.6 72.6 0 0 1-11.64-14.128l-.003-.006a57.5 57.5 0 0 1-7.399-17.556 47.7 47.7 0 0 1-1.206-9.538v-.015l-.002-.062v-.009a201 201 0 0 1-.07-4.66 75 75 0 0 1 .004-.966 21 21 0 0 0 7.685 1.366 25 25 0 0 0 1.367-.039 24.6 24.6 0 0 0 6.672-1.314 18.9 18.9 0 0 0 7.277-4.448l.037-.037a14 14 0 0 0 .593-.644l.01-.013a14.9 14.9 0 0 0 3.545-8.956 16 16 0 0 0 .022-.804 14.2 14.2 0 0 0-4.671-10.783l-.057-.05a12.47 12.47 0 0 0-6.633-2.893 11 11 0 0 0-1.418-.087 12 12 0 0 0-1.08.049 3 3 0 0 0-.197.025 20.02 20.02 0 0 0-12.925 8.113l-.05.072a30.3 30.3 0 0 0-4.517 11.168 48 48 0 0 1-1.426-1.487 42 42 0 0 1-4.298-5.54 39 39 0 0 1-3.934-7.87 40.4 40.4 0 0 1-2.403-13.884v-.011a44 44 0 0 1 .039-1.852 52.6 52.6 0 0 1 5.556-20.904l.01-.021a61.7 61.7 0 0 1 22.015-24.667 53 53 0 0 1 3.024-1.765 2.5 2.5 0 0 0-2.376-4.4 58 58 0 0 0-3.321 1.94l-.02.011a66.7 66.7 0 0 0-23.802 26.662 57.6 57.6 0 0 0-6.08 22.894l-.001.026a49 49 0 0 0-.044 2.07 45.4 45.4 0 0 0 2.703 15.604l.003.01a44 44 0 0 0 4.44 8.882 47 47 0 0 0 4.807 6.197 53 53 0 0 0 4.53 4.378 80 80 0 0 0-.086 3.984 206 206 0 0 0 .071 4.772l.002.058v.022a52.7 52.7 0 0 0 1.335 10.547l.003.013a62.5 62.5 0 0 0 8.042 19.088 77.6 77.6 0 0 0 12.438 15.097 90.4 90.4 0 0 0 16.426 12.302 99 99 0 0 0 19.068 8.608 105 105 0 0 0 8.103 2.317 147 147 0 0 1-1.227.188h-.005a251 251 0 0 1-7.242.984h-.002a353 353 0 0 1-5.234.596 2.5 2.5 0 0 0 .528 4.972m-42.978-98.194a25.33 25.33 0 0 0-4.12 12.227 11 11 0 0 0 1.225.611 16 16 0 0 0 6.213 1.176h.028a20 20 0 0 0 1.1-.031h.003a19.6 19.6 0 0 0 5.328-1.051l.033-.011a13.9 13.9 0 0 0 5.346-3.258 9 9 0 0 0 .362-.395 9.9 9.9 0 0 0 2.35-5.948l.001-.017a11 11 0 0 0 .015-.568v-.048a9.2 9.2 0 0 0-2.998-6.978 7.47 7.47 0 0 0-3.953-1.71l-.023-.004a6 6 0 0 0-.8-.05 7 7 0 0 0-.54.021 15.03 15.03 0 0 0-9.57 6.034" fill-rule="evenodd"/></symbol><use xlink:href="#sprite-sketch-arrow" width="327" height="327" y="836"/><view id="sprite-sketch-arrow-view" viewBox="0 836 327 327"/><symbol id="sprite-sketch-star" viewBox="0 0 51 51"><path d="M38.41 15.894a1.5 1.5 0 0 1 1.73 2.441L35.322 22.3c-4.284 3.552-7.018 5.958-8.629 8.036-1.03 1.33-1.514 2.424-1.668 3.508-.136.965-.028 2.044.359 3.43l.182.613.033.114a1.5 1.5 0 0 1-2.21 1.639l-.1-.064-.693-.486q-.331-.238-.633-.458a41 41 0 0 0-1.126-.8c-.702-.474-1.309-.811-1.97-1.023-1.282-.412-3.086-.455-6.606.618a1.5 1.5 0 0 1-1.655-2.31c1.366-1.9 2.168-3.71 2.475-5.633.308-1.929.133-4.077-.613-6.677a1.5 1.5 0 0 1 2.447-1.527c1.556 1.407 2.757 2.264 3.9 2.71 1.087.423 2.22.512 3.72.17 1.552-.354 3.468-1.163 6.067-2.545 2.587-1.376 5.757-3.266 9.807-5.721m-11.716 9.988c-1.265.55-2.416.958-3.492 1.203-2 .456-3.754.37-5.476-.3A10.5 10.5 0 0 1 16.144 26a15.5 15.5 0 0 1-.1 3.957c-.21 1.312-.6 2.556-1.151 3.763 1.954-.306 3.502-.213 4.89.232.817.262 1.53.632 2.192 1.043a9 9 0 0 1 .08-1.572c.247-1.743 1.018-3.314 2.267-4.925.64-.825 1.43-1.688 2.372-2.616"/><path d="M32.673 30.356a1.5 1.5 0 0 1 1.874.995c.262.855.39 1.868.51 2.487a1.5 1.5 0 0 1-2.947.566c-.178-.929-.232-1.52-.432-2.174a1.5 1.5 0 0 1 .995-1.874"/><path d="M31.526 34.795a1.5 1.5 0 0 1 .682 2.921c-.501.117-1.236.32-1.911.423a1.5 1.5 0 0 1-.455-2.966c.524-.08 1-.219 1.684-.378"/><path d="M34.315 36.173a1.5 1.5 0 0 1 1.496 1.503c-.002.604.112 1.402.29 1.947a1.5 1.5 0 1 1-2.853.93c-.288-.886-.44-2.005-.437-2.884a1.5 1.5 0 0 1 1.504-1.496"/><path d="M38.479 33.69a1.5 1.5 0 0 1 .372 2.977c-.32.04-.594.115-1.103.22-.436.091-1.022.195-1.645.144a1.5 1.5 0 0 1 .242-2.99c.175.014.41-.011.795-.09.312-.065.86-.2 1.339-.26"/><path d="M18.438 9.208a1.5 1.5 0 0 1 1.644 1.34c.08.781.213 1.566.376 2.372a1.5 1.5 0 0 1-2.94.593 28 28 0 0 1-.42-2.66 1.5 1.5 0 0 1 1.34-1.645"/><path d="M16.859 13.726a1.5 1.5 0 0 1 .538 2.951c-.675.123-1.327.207-2 .268a1.5 1.5 0 0 1-.268-2.989 19 19 0 0 0 1.73-.23"/><path d="M19.633 15.23a1.5 1.5 0 0 1 1.525 1.474c.011.636.14 1.355.301 2.135a1.5 1.5 0 1 1-2.938.606c-.16-.777-.347-1.743-.363-2.69a1.5 1.5 0 0 1 1.475-1.526"/><path d="M23.625 12.562a1.5 1.5 0 0 1 .34 2.98c-.62.072-1.02.245-1.942.474a1.5 1.5 0 0 1-.726-2.91c.522-.13 1.457-.444 2.328-.544"/></symbol><use xlink:href="#sprite-sketch-star" width="51" height="51" y="1163"/><view id="sprite-sketch-star-view" viewBox="0 1163 51 51"/><symbol id="sprite-sketch" viewBox="0 0 51 51"><path d="M38.41 15.894a1.5 1.5 0 0 1 1.73 2.441L35.322 22.3c-4.284 3.552-7.018 5.958-8.629 8.036-1.03 1.33-1.514 2.424-1.668 3.508-.136.965-.028 2.044.359 3.43l.182.613.033.114a1.5 1.5 0 0 1-2.21 1.639l-.1-.064-.693-.486q-.331-.238-.633-.458a41 41 0 0 0-1.126-.8c-.702-.474-1.309-.811-1.97-1.023-1.282-.412-3.086-.455-6.606.618a1.5 1.5 0 0 1-1.655-2.31c1.366-1.9 2.168-3.71 2.475-5.633.308-1.929.133-4.077-.613-6.677a1.5 1.5 0 0 1 2.447-1.527c1.556 1.407 2.757 2.264 3.9 2.71 1.087.423 2.22.512 3.72.17 1.552-.354 3.468-1.163 6.067-2.545 2.587-1.376 5.757-3.266 9.807-5.721m-11.716 9.988c-1.265.55-2.416.958-3.492 1.203-2 .456-3.754.37-5.476-.3A10.5 10.5 0 0 1 16.144 26a15.5 15.5 0 0 1-.1 3.957c-.21 1.312-.6 2.556-1.151 3.763 1.954-.306 3.502-.213 4.89.232.817.262 1.53.632 2.192 1.043a9 9 0 0 1 .08-1.572c.247-1.743 1.018-3.314 2.267-4.925.64-.825 1.43-1.688 2.372-2.616"/><path d="M32.673 30.356a1.5 1.5 0 0 1 1.874.995c.262.855.39 1.868.51 2.487a1.5 1.5 0 0 1-2.947.566c-.178-.929-.232-1.52-.432-2.174a1.5 1.5 0 0 1 .995-1.874"/><path d="M31.526 34.795a1.5 1.5 0 0 1 .682 2.921c-.501.117-1.236.32-1.911.423a1.5 1.5 0 0 1-.455-2.966c.524-.08 1-.219 1.684-.378"/><path d="M34.315 36.173a1.5 1.5 0 0 1 1.496 1.503c-.002.604.112 1.402.29 1.947a1.5 1.5 0 1 1-2.853.93c-.288-.886-.44-2.005-.437-2.884a1.5 1.5 0 0 1 1.504-1.496"/><path d="M38.479 33.69a1.5 1.5 0 0 1 .372 2.977c-.32.04-.594.115-1.103.22-.436.091-1.022.195-1.645.144a1.5 1.5 0 0 1 .242-2.99c.175.014.41-.011.795-.09.312-.065.86-.2 1.339-.26"/><path d="M18.438 9.208a1.5 1.5 0 0 1 1.644 1.34c.08.781.213 1.566.376 2.372a1.5 1.5 0 0 1-2.94.593 28 28 0 0 1-.42-2.66 1.5 1.5 0 0 1 1.34-1.645"/><path d="M16.859 13.726a1.5 1.5 0 0 1 .538 2.951c-.675.123-1.327.207-2 .268a1.5 1.5 0 0 1-.268-2.989 19 19 0 0 0 1.73-.23"/><path d="M19.633 15.23a1.5 1.5 0 0 1 1.525 1.474c.011.636.14 1.355.301 2.135a1.5 1.5 0 1 1-2.938.606c-.16-.777-.347-1.743-.363-2.69a1.5 1.5 0 0 1 1.475-1.526"/><path d="M23.625 12.562a1.5 1.5 0 0 1 .34 2.98c-.62.072-1.02.245-1.942.474a1.5 1.5 0 0 1-.726-2.91c.522-.13 1.457-.444 2.328-.544"/></symbol><use xlink:href="#sprite-sketch" width="51" height="51" y="1214"/><view id="sprite-sketch-view" viewBox="0 1214 51 51"/><symbol id="sprite-sort" viewBox="0 0 24 24"><path d="M3 6.25h18a.75.75 0 0 1 0 1.5H3a.75.75 0 0 1 0-1.5"/><path d="M6 11.25h12a.75.75 0 0 1 0 1.5H6a.75.75 0 0 1 0-1.5"/><path d="M10 16.25h4a.75.75 0 0 1 0 1.5h-4a.75.75 0 0 1 0-1.5"/></symbol><use xlink:href="#sprite-sort" width="24" height="24" y="1265"/><view id="sprite-sort-view" viewBox="0 1265 24 24"/><symbol id="sprite-star" viewBox="0 0 22 21"><path d="m11.673.668 2.915 5.907 6.52.953a.75.75 0 0 1 .415 1.28l-4.717 4.594 1.113 6.491a.75.75 0 0 1-1.088.79L11 17.618l-5.83 3.067a.75.75 0 0 1-1.09-.79l1.114-6.492L.477 8.807a.75.75 0 0 1 .415-1.28l6.52-.952L10.327.668a.75.75 0 0 1 1.346 0M11 2.694l2.417 4.898a.75.75 0 0 0 .565.41l5.407.79-3.912 3.81a.75.75 0 0 0-.216.665l.923 5.382-4.835-2.543a.75.75 0 0 0-.698 0L5.816 18.65l.923-5.382a.75.75 0 0 0-.216-.664l-3.912-3.81 5.407-.79a.75.75 0 0 0 .565-.411z" fill-rule="evenodd"/></symbol><use xlink:href="#sprite-star" width="22" height="21" y="1289"/><view id="sprite-star-view" viewBox="0 1289 22 21"/><symbol id="sprite-user" viewBox="0 0 30 30"><path d="M9.5 8.75a5.5 5.5 0 1 0 5.5-5.5 5.5 5.5 0 0 0-5.5 5.5m5.5-7" fill-rule="evenodd"/><path d="M26.487 27.465a9.35 9.35 0 0 0-5.728-8.19A13.3 13.3 0 0 0 15.003 18a12.83 12.83 0 0 0-7.929 2.619 8.79 8.79 0 0 0-3.561 6.864.75.75 0 1 0 1.5.034 7.29 7.29 0 0 1 2.956-5.694l.01-.008a11.33 11.33 0 0 1 7.01-2.315h.015a11.8 11.8 0 0 1 5.13 1.14l.032.014a7.85 7.85 0 0 1 4.822 6.88.75.75 0 0 0 1.499-.069"/></symbol><use xlink:href="#sprite-user" width="30" height="30" y="1310"/><view id="sprite-user-view" viewBox="0 1310 30 30"/></svg>